<?xml version="1.0" encoding="utf-8"?>
<!-- Generator: Adobe Illustrator 24.3.0, SVG Export Plug-In . SVG Version: 6.00 Build 0)  -->
<svg version="1.1" id="Layer_1" xmlns="http://www.w3.org/2000/svg" xmlns:xlink="http://www.w3.org/1999/xlink" x="0px" y="0px"
	 viewBox="0 0 300 300" enable-background="new 0 0 300 300" xml:space="preserve">
<g>
	<g>
		<g>
			<polygon fill="#F4F4F4" points="82.85,62.995 100.664,87.538 112.33,171.337 177.336,171.337 192.454,62.995 			"/>
		</g>
		<g>
			<rect x="112.33" y="171.337" fill="#AA6148" width="65.006" height="19.653"/>
		</g>
		<g>
			<polygon fill="#F4F4F4" points="192.454,255.164 97.212,255.164 112.33,190.99 177.336,190.99 			"/>
		</g>
		<g>
			<polygon fill="#EFEFEF" points="173.68,62.995 158.562,171.337 177.336,171.337 192.454,62.995 			"/>
		</g>
		<g>
			<polygon fill="#EFEFEF" points="177.336,190.99 158.562,190.99 173.68,255.164 192.454,255.164 			"/>
		</g>
		<g>
			<polygon fill="#F9F9F9" points="101.476,62.995 82.85,62.995 100.664,87.538 112.33,171.337 130.956,171.337 119.289,87.538 			
				"/>
		</g>
		<g>
			<polygon fill="#F9F9F9" points="112.33,190.99 97.212,255.164 115.838,255.164 130.956,190.99 			"/>
		</g>
		<g>
			<rect x="97.212" y="255.164" fill="#AA6148" width="95.242" height="15.78"/>
		</g>
		<g>
			<path fill="#AA6148" d="M192.454,62.995c0-9.655-6.177-16.128-17.82-16.128h-59.601c-11.644,0-17.821,8.064-17.821,16.128
				H192.454z"/>
		</g>
		<g>
			<path fill="#AA6148" d="M150.675,46.867l1.709-10.258c0-4.169-3.382-7.553-7.553-7.553c-4.169,0-7.552,3.384-7.552,7.553
				l1.71,10.258H150.675z"/>
		</g>
		<g>
			<path fill="#BC715C" d="M122.585,46.867h-7.552c-11.644,0-17.821,8.064-17.821,16.128h7.551
				C104.763,54.931,110.941,46.867,122.585,46.867z"/>
		</g>
		<g>
			<path fill="#BC715C" d="M148.609,30.104c-1.115-0.649-2.393-1.048-3.776-1.048c-4.169,0-7.552,3.384-7.552,7.553l1.71,10.258
				h7.552l-1.709-10.258C144.832,33.822,146.36,31.413,148.609,30.104z"/>
		</g>
		<g>
			<path fill="#AA6148" d="M192.454,62.995l-1.955,14.028h12.667v74.772c0,3.862,3.13,6.992,6.992,6.992
				c3.862,0,6.992-3.13,6.992-6.992v-88.8H192.454z"/>
		</g>
		<g>
			<g>
				<polygon fill="#BC715C" points="192.454,62.995 190.499,77.023 197.048,77.023 199.006,62.995 				"/>
			</g>
			<g>
				<path fill="#BC715C" d="M209.715,151.795V77.023h-6.549v74.772c0,3.862,3.13,6.992,6.992,6.992c1.187,0,2.291-0.325,3.272-0.85
					C211.23,156.762,209.715,154.467,209.715,151.795z"/>
			</g>
		</g>
		<g>
			<rect x="112.33" y="171.337" fill="#BC715C" width="18.626" height="19.653"/>
		</g>
		<g>
			<rect x="158.562" y="171.337" fill="#964636" width="18.774" height="19.653"/>
		</g>
		<g>
			<rect x="97.59" y="255.164" fill="#BC715C" width="18.626" height="15.78"/>
		</g>
	</g>
	<g>
		<g>
			<path fill="#161616" d="M177.336,175.872H112.33c-2.263,0-4.18-1.668-4.493-3.909l-6.958-49.984
				c-0.346-2.48,1.386-4.772,3.867-5.117c2.479-0.351,4.772,1.385,5.119,3.865l6.413,46.074h57.11l13.854-99.271H91.746
				l12.588,17.344c0.437,0.602,0.719,1.302,0.822,2.037l1.795,12.892c0.346,2.48-1.386,4.772-3.867,5.117
				c-2.494,0.343-4.773-1.385-5.119-3.865l-1.639-11.77L79.18,65.658c-1.002-1.379-1.144-3.204-0.371-4.724
				c0.775-1.518,2.336-2.474,4.041-2.474h109.604c1.311,0,2.56,0.567,3.422,1.559c0.859,0.989,1.252,2.303,1.069,3.602
				l-15.118,108.341C181.514,174.204,179.597,175.872,177.336,175.872z"/>
		</g>
		<g>
			<path fill="#161616" d="M177.336,195.525H112.33c-2.505,0-4.535-2.032-4.535-4.535v-19.653c0-2.504,2.03-4.535,4.535-4.535
				h65.006c2.504,0,4.535,2.032,4.535,4.535v19.653C181.871,193.494,179.84,195.525,177.336,195.525z M116.865,186.454H172.8
				v-10.583h-55.935V186.454z"/>
		</g>
		<g>
			<path fill="#161616" d="M192.454,259.7H97.212c-1.386,0-2.696-0.635-3.555-1.721c-0.861-1.084-1.177-2.504-0.859-3.853
				l15.118-64.175c0.483-2.049,2.311-3.496,4.414-3.496h65.006c2.105,0,3.933,1.447,4.414,3.496l15.118,64.175
				c0.319,1.349,0.003,2.77-0.859,3.853C195.149,259.065,193.838,259.7,192.454,259.7z M102.94,250.629h83.785l-12.98-55.104H115.92
				L102.94,250.629z"/>
		</g>
		<g>
			<path fill="#161616" d="M192.454,275.479h-15.118c-2.504,0-4.535-2.031-4.535-4.535s2.031-4.535,4.535-4.535h10.583V259.7
				h-86.171v6.709h54.665c2.504,0,4.535,2.031,4.535,4.535s-2.031,4.535-4.535,4.535H97.212c-2.505,0-4.535-2.031-4.535-4.535
				v-15.779c0-2.504,2.03-4.535,4.535-4.535h95.242c2.504,0,4.535,2.031,4.535,4.535v15.779
				C196.989,273.448,194.957,275.479,192.454,275.479z"/>
		</g>
		<g>
			<path fill="#161616" d="M192.454,67.53H97.212c-2.505,0-4.535-2.032-4.535-4.535c0-10.016,7.835-20.663,22.357-20.663h59.601
				c13.58,0,22.355,8.111,22.355,20.663C196.989,65.499,194.957,67.53,192.454,67.53z M102.692,58.46h84.55
				c-1.931-5.713-7.656-7.057-12.608-7.057h-59.601C108.395,51.403,104.387,54.58,102.692,58.46z"/>
		</g>
		<g>
			<path fill="#161616" d="M150.675,51.403H138.99c-2.217,0-4.109-1.603-4.473-3.788l-1.71-10.258
				c-0.041-0.248-0.062-0.496-0.062-0.747c0-6.664,5.423-12.089,12.087-12.089c6.666,0,12.089,5.424,12.089,12.089
				c0,0.251-0.021,0.499-0.062,0.747l-1.71,10.258C154.786,49.799,152.893,51.403,150.675,51.403z M142.832,42.332h4.002
				l1.002-6.015c-0.148-1.527-1.439-2.725-3.004-2.725c-1.565,0-2.855,1.199-3.003,2.725L142.832,42.332z"/>
		</g>
		<g>
			<path fill="#161616" d="M210.158,163.323c-6.357,0-11.528-5.17-11.528-11.527V81.559h-8.132c-1.311,0-2.56-0.567-3.422-1.559
				c-0.859-0.989-1.252-2.303-1.069-3.602l1.955-14.028c0.31-2.241,2.229-3.909,4.491-3.909h24.697c2.504,0,4.535,2.032,4.535,4.535
				v88.8C221.686,158.152,216.515,163.323,210.158,163.323z M195.71,72.488h7.456c2.504,0,4.535,2.032,4.535,4.535v74.772
				c0,1.355,1.101,2.457,2.457,2.457s2.457-1.101,2.457-2.457V67.53h-16.213L195.71,72.488z"/>
		</g>
	</g>
</g>
</svg>
