<?xml version="1.0" encoding="utf-8"?>
<!-- Generator: Adobe Illustrator 24.3.0, SVG Export Plug-In . SVG Version: 6.00 Build 0)  -->
<svg version="1.1" id="Layer_1" xmlns="http://www.w3.org/2000/svg" xmlns:xlink="http://www.w3.org/1999/xlink" x="0px" y="0px"
	 viewBox="0 0 300 300" enable-background="new 0 0 300 300" xml:space="preserve">
<g>
	<g>
		<g>
			<path fill="#AA6148" d="M79.16,257.416c-14.429,14.427-34.401,17.855-44.605,7.653c-10.194-10.202-6.774-30.171,7.662-44.598
				c14.43-14.433,34.395-17.858,44.598-7.659C97.018,223.017,93.596,242.983,79.16,257.416z"/>
		</g>
		<g>
			<path fill="#BC715C" d="M47.697,225.952c13.11-13.113,30.765-17.102,41.541-10.081c-0.707-1.087-1.488-2.126-2.423-3.059
				c-10.203-10.198-30.168-6.773-44.598,7.659c-14.436,14.427-17.856,34.396-7.662,44.598c0.935,0.936,1.976,1.716,3.062,2.424
				C30.598,256.716,34.581,239.059,47.697,225.952z"/>
		</g>
		<g>
			<path fill="#BC715C" d="M39.159,266.395c-0.597,0-1.19-0.006-1.785-0.018c-2.46-0.044-4.415-2.082-4.369-4.544
				c0.044-2.439,2.03-4.385,4.446-4.385c0.028,0,0.056,0,0.084,0.003c10.06,0.171,17.986,0.325,20.183-19.954
				c2.41-22.217,18.472-26.521,26.65-25.704c2.442,0.248,4.224,2.436,3.98,4.893c-0.247,2.442-2.432,4.24-4.844,3.995
				c-1.549-0.115-14.935-0.694-16.94,17.781C63.854,263.481,51.75,266.395,39.159,266.395z"/>
		</g>
		<g>
			<path fill="#F4F4F4" d="M231.946,97.044h-5.87v16.302h5.87c21.337,0,22.993,22.591,22.993,29.513v43.851
				c0,14.262-13.32,27.318-28.863,29.241v15.862c0,0.174-0.022,0.343-0.024,0.517c24.483-1.993,45.19-22.432,45.19-45.62v-43.851
				C271.242,115.452,255.45,97.044,231.946,97.044z"/>
		</g>
		<g>
			<path fill="#F4F4F4" d="M85.093,77.754v133.567c0.595,0.467,1.18,0.948,1.721,1.491c7.691,7.692,7.633,20.926,0.961,33.159
				c5.678,14.604,19.834,24.971,36.444,24.971h62.729c21.61,0,39.127-17.519,39.127-39.13V77.754H85.093z"/>
		</g>
		<g>
			<path fill="#F9F9F9" d="M104.406,245.971c6.672-12.233,6.729-25.467-0.961-33.159c-0.542-0.543-1.126-1.025-1.721-1.491V77.754
				h-16.63v133.567c0.595,0.467,1.18,0.948,1.721,1.491c7.691,7.692,7.633,20.926,0.961,33.159
				c5.678,14.604,19.834,24.971,36.444,24.971h16.63C124.239,270.942,110.084,260.575,104.406,245.971z"/>
		</g>
		<g>
			<g>
				<path fill="#F4F4F4" d="M152.323,58.889c-2.506,0-4.535-2.029-4.535-4.535V29.055c0-2.504,2.03-4.535,4.535-4.535
					c2.505,0,4.535,2.032,4.535,4.535v25.299C156.858,56.861,154.828,58.889,152.323,58.889z"/>
			</g>
		</g>
		<g>
			<path fill="#F9F9F9" d="M152.323,54.354V29.055c0-1.674,0.917-3.121,2.268-3.906c-0.669-0.39-1.437-0.629-2.268-0.629
				c-2.506,0-4.535,2.032-4.535,4.535v25.299c0,2.507,2.03,4.535,4.535,4.535c0.831,0,1.599-0.236,2.268-0.626
				C153.239,57.478,152.323,56.031,152.323,54.354z"/>
		</g>
		<g>
			<g>
				<path fill="#F4F4F4" d="M177.326,61.045c-2.505,0-4.535-2.032-4.535-4.535V36.59c0-2.504,2.03-4.535,4.535-4.535
					c2.505,0,4.535,2.031,4.535,4.535v19.919C181.862,59.013,179.832,61.045,177.326,61.045z"/>
			</g>
		</g>
		<g>
			<path fill="#F9F9F9" d="M177.326,56.509V36.59c0-1.674,0.918-3.121,2.268-3.906c-0.669-0.39-1.438-0.629-2.268-0.629
				c-2.505,0-4.535,2.031-4.535,4.535v19.919c0,2.504,2.03,4.535,4.535,4.535c0.83,0,1.599-0.239,2.268-0.629
				C178.244,59.63,177.326,58.184,177.326,56.509z"/>
		</g>
		<g>
			<g>
				<path fill="#F4F4F4" d="M126.789,63.064c-2.505,0-4.535-2.031-4.535-4.535V45.877c0-2.507,2.03-4.535,4.535-4.535
					c2.505,0,4.535,2.028,4.535,4.535v12.652C131.324,61.033,129.294,63.064,126.789,63.064z"/>
			</g>
		</g>
		<g>
			<path fill="#F9F9F9" d="M126.789,58.529V45.877c0-1.674,0.918-3.121,2.268-3.907c-0.669-0.39-1.438-0.629-2.268-0.629
				c-2.505,0-4.535,2.028-4.535,4.535v12.652c0,2.504,2.03,4.535,4.535,4.535c0.83,0,1.599-0.242,2.268-0.632
				C127.707,61.647,126.789,60.203,126.789,58.529z"/>
		</g>
		<g>
			<path fill="#AA6148" d="M190.365,161.984c0-9.605-7.785-17.389-17.387-17.389c-9.334,0-16.925,7.352-17.352,16.576l-0.061-0.021
				l-0.022,0.006c-0.436-9.215-8.024-16.562-17.35-16.562c-9.607,0-17.389,7.783-17.389,17.389c0,4.272,1.547,8.179,4.102,11.208
				h-0.005l30.688,30.903l30.685-30.903h-0.009C188.818,170.163,190.365,166.256,190.365,161.984z"/>
		</g>
		<g>
			<path fill="#BC715C" d="M139.28,173.192h0.004c-2.554-3.03-4.101-6.936-4.101-11.208c0-7.036,4.184-13.081,10.193-15.818
				c-2.189-0.998-4.617-1.571-7.183-1.571c-9.607,0-17.389,7.783-17.389,17.389c0,4.272,1.547,8.179,4.102,11.208h-0.005
				l30.688,30.903l7.189-7.24L139.28,173.192z"/>
		</g>
	</g>
	<g>
		<g>
			<path fill="#161616" d="M226.052,236.865c-1.141,0-2.246-0.431-3.089-1.214c-0.933-0.868-1.457-2.088-1.447-3.36
				c0.001-0.089,0.016-0.425,0.022-0.514l0.001-15.827c0-2.288,1.707-4.219,3.979-4.5c13.488-1.668,24.884-12.998,24.884-24.741
				v-43.851c0-7.509-1.798-24.977-18.458-24.977h-5.87c-2.505,0-4.535-2.032-4.535-4.535V97.044c0-2.504,2.03-4.535,4.535-4.535
				h5.87c26.217,0,43.832,20.235,43.832,50.35v43.851c0,25.432-22.141,47.926-49.358,50.14
				C226.297,236.859,226.175,236.865,226.052,236.865z M230.611,219.742v7.382c20.015-3.951,36.096-21.478,36.096-40.414v-43.851
				c0-25.078-13.645-41.279-34.761-41.279h-1.335v7.231h1.335c20.297,0,27.528,17.589,27.528,34.048v43.851
				C259.474,201.86,246.851,215.954,230.611,219.742z"/>
		</g>
		<g>
			<path fill="#161616" d="M152.323,58.889c-2.505,0-4.535-2.03-4.535-4.535V29.055c0-2.505,2.03-4.535,4.535-4.535
				c2.505,0,4.535,2.03,4.535,4.535v25.299C156.858,56.859,154.828,58.889,152.323,58.889z"/>
		</g>
		<g>
			<path fill="#161616" d="M177.326,61.045c-2.505,0-4.535-2.03-4.535-4.535V36.59c0-2.505,2.03-4.535,4.535-4.535
				c2.505,0,4.535,2.03,4.535,4.535v19.919C181.862,59.015,179.832,61.045,177.326,61.045z"/>
		</g>
		<g>
			<path fill="#161616" d="M126.789,63.064c-2.505,0-4.535-2.03-4.535-4.535V45.877c0-2.505,2.03-4.535,4.535-4.535
				c2.505,0,4.535,2.03,4.535,4.535v12.652C131.324,61.034,129.294,63.064,126.789,63.064z"/>
		</g>
		<g>
			<path fill="#161616" d="M155.59,208.631c-1.208,0-2.367-0.481-3.219-1.341l-30.688-30.903c-0.087-0.089-0.171-0.18-0.251-0.275
				c-3.329-3.957-5.163-8.973-5.163-14.129c0-12.088,9.836-21.924,21.924-21.924c7.075,0,13.382,3.345,17.39,8.572
				c4.008-5.226,10.317-8.572,17.395-8.572c12.088,0,21.923,9.836,21.923,21.924c0,5.064-1.767,9.992-4.984,13.91
				c-0.128,0.174-0.269,0.34-0.424,0.493l-30.685,30.903C157.956,208.15,156.799,208.631,155.59,208.631z M128.265,170.136
				l27.325,27.522l27.274-27.469c1.913-2.306,2.966-5.217,2.966-8.206c0-7.087-5.765-12.853-12.852-12.853
				c-6.871,0-12.503,5.38-12.821,12.251c-0.066,1.426-0.799,2.737-1.978,3.54c-1.116,0.759-2.517,0.974-3.802,0.611
				c-0.535-0.145-1.044-0.384-1.5-0.717c-1.107-0.809-1.8-2.076-1.865-3.443c-0.323-6.865-5.956-12.242-12.819-12.242
				c-7.088,0-12.853,5.767-12.853,12.853C125.34,164.948,126.378,167.839,128.265,170.136z"/>
		</g>
		<g>
			<path fill="#161616" d="M49.907,275.481c-7.299,0-13.795-2.442-18.559-7.205c-11.953-11.961-8.514-34.845,7.662-51.011
				c16.174-16.175,39.054-19.618,51.011-7.659c11.666,11.666,8.815,33.528-6.489,49.768c-1.72,1.822-4.587,1.908-6.412,0.192
				c-1.823-1.718-1.907-4.588-0.19-6.41c11.721-12.437,14.715-29.096,6.678-37.136c-8.414-8.406-25.546-4.978-38.185,7.659
				c-12.426,12.419-15.934,29.905-7.661,38.185c5.126,5.126,13.835,5.97,23.298,2.256c2.328-0.912,4.964,0.236,5.879,2.566
				c0.914,2.333-0.235,4.964-2.566,5.879C59.39,274.518,54.488,275.481,49.907,275.481z"/>
		</g>
		<g>
			<path fill="#161616" d="M186.949,275.478H124.22c-18.125,0-34.091-10.937-40.671-27.862c-0.484-1.246-0.394-2.643,0.245-3.815
				c5.916-10.848,5.842-21.753-0.186-27.782c-0.415-0.416-0.862-0.777-1.314-1.128c-1.095-0.859-1.736-2.176-1.736-3.57v-88.91
				c0-2.504,2.03-4.535,4.535-4.535s4.535,2.031,4.535,4.535v86.813c0.134,0.127,0.267,0.254,0.397,0.384
				c8.533,8.536,9.542,22.71,2.753,36.561c5.619,12.36,17.753,20.238,31.441,20.238h62.729c19.073,0,34.591-15.52,34.591-34.594
				V82.29H89.629v19.199c0,2.504-2.03,4.535-4.535,4.535s-4.535-2.032-4.535-4.535V77.754c0-2.505,2.03-4.535,4.535-4.535h140.982
				c2.505,0,4.535,2.03,4.535,4.535v154.059C230.611,255.889,211.024,275.478,186.949,275.478z"/>
		</g>
		<g>
			<path fill="#161616" d="M37.36,266.575c-2.439,0-4.454-1.94-4.531-4.394c-0.077-2.504,1.89-4.597,4.394-4.674l0.847-0.027
				c10.884-0.322,17.454-0.52,19.633-20.067c2.489-22.331,18.819-26.639,27.081-25.783c2.492,0.254,4.306,2.48,4.051,4.972
				c-0.254,2.483-2.471,4.296-4.946,4.054c-1.563-0.139-15.109-0.735-17.172,17.761c-3.05,27.378-17.095,27.794-28.379,28.131
				l-0.836,0.024C37.456,266.575,37.407,266.575,37.36,266.575z"/>
		</g>
	</g>
</g>
</svg>
